<?xml version="1.0" encoding="UTF-8"?>
<svg id="_レイヤー_2" data-name="レイヤー_2" xmlns="http://www.w3.org/2000/svg" viewBox="0 0 190.5 34">
  <g id="_デザイン" data-name="デザイン">
    <g>
      <rect x=".5" y=".5" width="189.5" height="33" rx="6" ry="6" fill="none" stroke="#e6e6e6" stroke-miterlimit="10"/>
      <g>
        <g>
          <path d="M40.51,17.65c-.1.29-.18.57-.24.85-.06.28-.08.56-.08.83,0,.59.3,1.06.91,1.42s1.5.54,2.69.54c.66,0,1.29-.02,1.88-.07.59-.05,1.13-.11,1.62-.19.49-.08.89-.17,1.21-.29v.76c-.28.08-.66.17-1.15.25-.49.08-1.03.14-1.64.18s-1.25.06-1.92.06c-.88,0-1.64-.09-2.28-.28-.64-.19-1.14-.47-1.49-.84-.35-.37-.52-.84-.52-1.39,0-.35.03-.68.09-.99.06-.32.13-.62.2-.92l.71.08ZM40.32,12.18c.5.07,1.05.11,1.68.14.62.03,1.27.04,1.95.04.45,0,.89,0,1.32-.03.43-.02.84-.04,1.23-.08.39-.03.75-.06,1.06-.09v.73c-.31.02-.66.04-1.06.07-.4.03-.81.05-1.25.07-.44.02-.87.03-1.3.03-.68,0-1.32-.02-1.92-.05-.6-.03-1.17-.07-1.71-.1v-.73Z" fill="#4d4d4d"/>
          <path d="M57.42,12.26c-.08.73-.2,1.49-.34,2.28-.14.79-.32,1.54-.53,2.24-.28.96-.59,1.75-.92,2.38-.33.62-.68,1.09-1.04,1.39s-.74.45-1.13.45c-.35,0-.7-.14-1.05-.41s-.65-.68-.88-1.2c-.23-.53-.35-1.17-.35-1.93s.15-1.44.46-2.1c.3-.66.73-1.25,1.27-1.76s1.18-.92,1.9-1.21,1.49-.44,2.31-.44,1.51.13,2.14.39c.63.26,1.18.62,1.64,1.07.46.45.81.98,1.05,1.58.24.6.36,1.24.36,1.91,0,.98-.21,1.84-.64,2.57s-1.03,1.32-1.81,1.76c-.78.44-1.7.73-2.77.86l-.41-.69c.2,0,.4-.03.6-.06.21-.03.38-.06.53-.08.45-.09.89-.25,1.34-.48.44-.23.85-.52,1.22-.88.37-.35.67-.78.89-1.29.22-.5.34-1.09.34-1.75,0-.58-.1-1.12-.3-1.64-.2-.51-.49-.97-.88-1.36-.39-.39-.86-.7-1.41-.94-.55-.23-1.19-.35-1.9-.35-.78,0-1.5.15-2.14.43-.64.29-1.2.67-1.67,1.14-.47.47-.82.99-1.07,1.56-.25.57-.37,1.13-.37,1.68,0,.65.09,1.19.27,1.6.18.42.39.72.64.92.25.2.49.29.73.29s.48-.12.74-.35c.26-.23.53-.62.8-1.15.28-.53.54-1.24.8-2.11.21-.68.38-1.4.52-2.15.14-.75.24-1.49.31-2.21h.73Z" fill="#4d4d4d"/>
          <path d="M64.66,18.28c.17-.14.32-.27.45-.41s.28-.28.43-.43c.18-.18.38-.4.62-.68.23-.27.48-.57.74-.89.26-.32.52-.63.77-.94s.48-.59.69-.84c.35-.4.68-.63,1-.68.32-.05.7.13,1.14.55.26.24.56.54.91.9.35.35.69.71,1.04,1.08.35.36.66.69.92.97.32.33.67.7,1.06,1.13s.79.86,1.2,1.29c.41.44.79.85,1.14,1.25l-.62.63c-.34-.41-.7-.83-1.08-1.27-.39-.43-.76-.86-1.13-1.28-.37-.42-.71-.8-1.03-1.15-.2-.22-.42-.47-.67-.74s-.51-.54-.77-.82c-.26-.27-.51-.53-.74-.77-.23-.24-.43-.43-.59-.58-.3-.28-.53-.41-.71-.39-.17.02-.39.19-.67.5-.18.22-.38.48-.62.78s-.48.6-.74.91c-.25.31-.49.61-.73.89-.23.28-.43.52-.6.71-.13.16-.26.33-.4.5-.14.18-.25.33-.36.45l-.66-.67ZM72.95,13.49c0-.3.08-.57.22-.82.15-.25.35-.44.59-.59.25-.14.52-.22.82-.22s.57.07.81.22c.24.15.44.34.59.59.15.25.22.52.22.82s-.08.57-.22.82c-.15.25-.34.44-.59.59-.24.15-.51.22-.81.22s-.57-.07-.82-.22c-.25-.14-.45-.34-.59-.59-.15-.25-.22-.52-.22-.82ZM73.48,13.49c0,.3.11.56.32.78s.48.33.78.33.57-.11.78-.33c.21-.22.32-.48.32-.78s-.11-.57-.32-.78c-.21-.21-.48-.32-.78-.32s-.57.11-.78.32-.32.48-.32.78Z" fill="#4d4d4d"/>
          <path d="M79.28,15.98c.12,0,.27.02.44.03.17,0,.37.02.59.02.22,0,.47,0,.74,0h7.76c.36,0,.66,0,.89-.02.23-.01.41-.03.54-.04v.87c-.13,0-.32-.02-.57-.03-.25,0-.53-.01-.85-.01h-7.77c-.38,0-.73,0-1.03,0-.3,0-.55.02-.75.04v-.87Z" fill="#4d4d4d"/>
          <path d="M93.67,14.49c.2.09.43.23.71.4.28.17.57.35.87.53.3.18.58.35.83.51.26.16.45.29.58.39l-.41.63c-.16-.11-.36-.25-.62-.43-.25-.17-.52-.35-.81-.53-.29-.18-.57-.35-.85-.52-.28-.16-.51-.29-.71-.39l.39-.6ZM93.94,21.4c.51-.09,1.04-.22,1.58-.38s1.08-.35,1.61-.57c.53-.22,1.02-.46,1.47-.71.77-.45,1.47-.94,2.11-1.48.64-.54,1.23-1.11,1.75-1.71.52-.6.97-1.23,1.36-1.88l.43.71c-.59.92-1.34,1.82-2.25,2.69-.92.87-1.92,1.64-3.02,2.29-.47.28-.97.53-1.52.76-.55.22-1.09.42-1.62.59-.54.17-1.03.3-1.48.41l-.42-.73ZM95.76,11.35c.2.11.43.26.7.44.27.18.55.37.85.57s.57.38.83.55.44.31.57.41l-.43.6c-.15-.12-.35-.27-.59-.45s-.52-.36-.8-.56c-.29-.2-.57-.38-.84-.55-.27-.17-.5-.31-.69-.41l.41-.6ZM101.68,11.52c.11.15.25.35.42.62.17.26.33.53.5.81.16.28.3.54.41.77l-.56.27c-.1-.22-.23-.47-.38-.73s-.3-.53-.46-.8c-.16-.27-.31-.49-.46-.68l.53-.25ZM103.44,10.86c.12.15.27.35.43.61.17.26.34.53.51.81s.31.53.43.76l-.56.27c-.1-.22-.23-.47-.39-.73-.15-.27-.31-.53-.48-.78-.17-.26-.33-.48-.48-.67l.53-.25Z" fill="#4d4d4d"/>
          <path d="M112,10.82c-.07.29-.14.62-.22.98-.08.36-.21.77-.39,1.23-.19.47-.42.95-.71,1.44-.29.49-.59.95-.92,1.36.21-.15.45-.27.69-.37.25-.1.5-.17.76-.22.26-.05.5-.08.72-.08.51,0,.95.15,1.31.43.36.29.54.7.54,1.22v.68c0,.28,0,.57,0,.88s.01.61.02.9c0,.29.01.54.01.76h-.73c0-.2.02-.43.02-.71,0-.27,0-.56.01-.86,0-.3,0-.58,0-.85v-.67c0-.38-.14-.68-.4-.88-.26-.21-.59-.31-1-.31-.48,0-.93.1-1.37.29-.43.2-.83.45-1.18.77-.2.18-.4.39-.6.64-.21.25-.42.51-.66.78l-.64-.46c.72-.71,1.3-1.36,1.76-1.96.45-.6.81-1.13,1.07-1.61s.46-.88.59-1.2c.17-.39.3-.78.39-1.18.09-.39.15-.75.17-1.06l.74.06ZM107.49,12.46c.38.05.79.08,1.21.1s.79.03,1.1.03c.63,0,1.31-.02,2.02-.05s1.42-.08,2.14-.15c.72-.06,1.4-.16,2.04-.28v.7c-.49.07-1,.14-1.53.2-.54.06-1.08.1-1.63.13-.55.03-1.09.06-1.61.07-.52.01-1.01.02-1.47.02-.21,0-.43,0-.69,0-.25,0-.51-.01-.78-.03-.27-.01-.54-.03-.8-.04v-.71ZM117.95,15.48c-.1.04-.21.07-.32.11-.11.04-.22.08-.34.13-.11.05-.22.09-.32.14-.52.2-1.12.43-1.78.71s-1.33.6-2.02.97c-.49.25-.92.52-1.32.79-.39.28-.71.57-.95.88-.24.31-.36.65-.36,1.02,0,.32.08.57.23.76.15.19.36.33.62.43.26.1.56.16.9.19.34.03.7.04,1.07.04.51,0,1.11-.03,1.79-.08.68-.05,1.32-.12,1.94-.22v.71c-.39.05-.79.09-1.23.13-.44.04-.88.07-1.31.09-.43.02-.84.04-1.22.04-.63,0-1.2-.05-1.74-.16s-.96-.31-1.27-.59c-.32-.29-.48-.71-.48-1.26,0-.38.09-.74.27-1.06.18-.33.43-.62.73-.9.31-.27.66-.53,1.04-.77.39-.24.79-.47,1.2-.67.46-.24.9-.46,1.32-.65s.83-.37,1.22-.53c.39-.16.75-.32,1.06-.48.18-.08.34-.16.48-.22.14-.06.29-.13.43-.22l.32.69Z" fill="#4d4d4d"/>
          <path d="M121.29,11.45l.67.27v9.73h-.67v-10ZM125.66,10.15l.62.55c-.41.19-.87.38-1.37.57-.5.19-1.03.37-1.58.54s-1.09.33-1.61.48c-.02-.07-.05-.17-.09-.27s-.09-.2-.15-.29c.5-.14,1.02-.3,1.54-.48.52-.18,1.01-.36,1.48-.55.46-.19.85-.37,1.17-.55ZM121.63,15.09h4.48v.67h-4.48v-.67ZM121.63,19.53h4.58v.66h-4.58v-.66ZM127.17,11.11h5.14v.67h-4.45v10.98h-.69v-11.65ZM131.9,11.11h.67v8.41c0,.24-.03.43-.1.57-.07.14-.2.24-.4.31-.2.07-.48.11-.86.12-.38.01-.84.02-1.38.02-.02-.07-.04-.15-.08-.24-.03-.08-.07-.17-.11-.26-.04-.09-.07-.17-.11-.23.49,0,.93.01,1.31.01h.75c.13,0,.21-.04.25-.08s.06-.12.06-.23v-8.41Z" fill="#4d4d4d"/>
          <path d="M135.4,10.94h.63v4.79c0,.51-.02,1.06-.05,1.65-.03.59-.09,1.19-.17,1.8s-.21,1.21-.36,1.78c-.16.58-.37,1.12-.64,1.61-.04-.05-.09-.1-.15-.15-.07-.05-.13-.1-.2-.15-.07-.05-.13-.09-.17-.12.26-.47.47-.97.62-1.51.15-.54.27-1.1.34-1.67s.12-1.13.14-1.69c.02-.56.04-1.08.04-1.56v-4.79ZM135.77,10.94h6.03v3.44h-6.03v-.64h5.38v-2.17h-5.38v-.63ZM136.47,15.97h5.05v.62h-4.47v4.68h-.59v-5.29ZM138.76,14.32h.6v8.47h-.6v-8.47ZM141.23,15.97h.59v4.37c0,.18-.02.32-.06.42-.04.1-.13.18-.27.24-.14.06-.33.09-.57.1-.24.01-.55.02-.91.02,0-.09-.04-.2-.08-.31s-.1-.21-.15-.29c.33,0,.6.01.82.01h.44c.08,0,.14-.03.16-.06.02-.03.04-.07.04-.14v-4.37ZM143.01,11.63h.63v7.71h-.63v-7.71ZM145.83,10.37h.66v11.41c0,.28-.04.49-.13.62-.08.13-.21.23-.39.29-.19.06-.46.09-.83.11s-.8.03-1.3.03c-.02-.1-.05-.22-.1-.36-.05-.14-.1-.27-.17-.38.45,0,.86.01,1.22.01s.61,0,.74-.01c.11,0,.19-.02.23-.06s.06-.12.06-.23v-11.42Z" fill="#4d4d4d"/>
          <path d="M149.18,12.89c.35,0,.76-.02,1.23-.04.47-.01.97-.03,1.5-.05.54-.02,1.09-.04,1.65-.05.56-.01,1.12-.03,1.65-.03.54,0,1.05-.01,1.53-.01s.91,0,1.32,0c.42,0,.79,0,1.13,0s.64,0,.9,0,.46,0,.61,0v.67c-.38-.02-.87-.03-1.49-.04-.62,0-1.44-.01-2.47-.01-.59,0-1.21,0-1.86.01-.65,0-1.32.03-2,.05s-1.33.05-1.97.08-1.21.07-1.74.12v-.73ZM156.39,16.91c0,.54-.09.99-.27,1.36-.18.36-.42.64-.71.82s-.62.27-.99.27c-.31,0-.6-.05-.87-.14-.27-.09-.51-.24-.71-.43-.21-.2-.37-.43-.48-.7-.12-.27-.17-.58-.17-.94,0-.43.1-.82.31-1.16.21-.35.49-.62.83-.84.35-.21.72-.32,1.13-.32.5,0,.92.11,1.25.34.33.23.58.54.74.94.16.4.25.86.25,1.37,0,.49-.06.97-.18,1.44s-.33.93-.63,1.37-.71.83-1.22,1.18c-.51.35-1.17.65-1.96.9l-.62-.57c.66-.16,1.24-.37,1.73-.63.49-.26.9-.57,1.23-.92.33-.35.57-.76.73-1.22.16-.46.24-.97.24-1.53,0-.74-.15-1.26-.45-1.58s-.66-.48-1.09-.48c-.28,0-.54.07-.79.22-.25.15-.45.34-.59.6-.15.25-.22.55-.22.88,0,.51.16.91.48,1.18s.7.41,1.15.41c.34,0,.62-.09.84-.27.22-.18.39-.43.5-.76.11-.33.15-.73.12-1.2l.45.41ZM156.33,10.82s0,.1-.02.2-.02.19-.03.28c0,.09,0,.17,0,.22,0,.18-.01.42-.01.71v.98c0,.35,0,.71,0,1.08,0,.36,0,.71.01,1.03,0,.32,0,.6,0,.82l-.67-.52v-.52c0-.25,0-.55,0-.9s0-.69-.01-1.04,0-.67-.01-.97c0-.29-.01-.52-.02-.68,0-.13-.02-.27-.04-.41-.01-.14-.03-.24-.04-.29h.84Z" fill="#4d4d4d"/>
          <path d="M165.25,11.69c.13,0,.27.02.43.02s.29,0,.4,0c.14,0,.38,0,.71,0,.33,0,.71-.02,1.13-.04.42-.02.85-.04,1.27-.06.42-.02.8-.03,1.13-.05.33-.01.56-.03.71-.04.16-.03.28-.05.36-.06s.15-.02.22-.04l.5.55c-.11.07-.23.16-.34.25-.12.09-.24.18-.36.29-.16.13-.4.33-.72.61s-.68.58-1.08.92-.79.67-1.18,1c-.39.33-.74.63-1.04.89.37-.14.76-.24,1.16-.29.4-.05.78-.08,1.16-.08.76,0,1.44.14,2.02.41s1.04.65,1.37,1.12c.33.47.49,1.01.49,1.62,0,.76-.2,1.4-.61,1.93-.41.53-.96.94-1.66,1.22-.7.28-1.5.42-2.41.42-.62,0-1.15-.08-1.57-.25-.42-.16-.75-.38-.97-.65-.22-.27-.33-.58-.33-.92,0-.28.08-.54.24-.79.16-.25.38-.45.68-.59.29-.15.64-.22,1.03-.22.62,0,1.12.13,1.52.38.4.26.7.59.92.99.21.41.34.84.38,1.29l-.64.14c-.06-.65-.27-1.19-.64-1.62-.37-.42-.89-.64-1.54-.64-.35,0-.64.1-.9.29-.25.2-.38.43-.38.71,0,.38.2.68.6.9.4.21.91.32,1.53.32.79,0,1.5-.11,2.11-.34.61-.22,1.09-.56,1.43-.99.35-.44.52-.98.52-1.61,0-.48-.14-.91-.42-1.29-.28-.39-.67-.69-1.16-.92-.5-.23-1.06-.34-1.71-.34-.61,0-1.15.06-1.62.17-.48.11-.92.28-1.33.5-.41.22-.82.51-1.24.86s-.87.76-1.35,1.23l-.53-.52c.32-.27.66-.56,1.04-.87.37-.31.74-.61,1.11-.92.37-.3.71-.59,1.02-.85.31-.27.57-.48.76-.65.2-.16.45-.37.76-.64.31-.27.63-.54.98-.83.35-.29.67-.56.97-.83.3-.26.54-.47.72-.63-.15,0-.39.02-.71.03-.33,0-.69.03-1.1.05-.41.02-.81.04-1.21.06s-.76.03-1.08.04-.55.03-.7.04c-.13,0-.26.02-.39.03s-.27.02-.42.04v-.76Z" fill="#4d4d4d"/>
        </g>
        <g id="g3378">
          <g id="g3380">
            <g id="g3382">
              <g id="g3388">
                <path id="path3390" d="M29.39,21.77h1.08c1.24,0,2.24-1,2.24-2.24v-4.47c0-1.24-1-2.24-2.24-2.24h-13.5c-1.24,0-2.24,1-2.24,2.24v4.47c0,1.24,1,2.24,2.24,2.24h1.08" fill="none" stroke="#999" stroke-linecap="round" stroke-linejoin="round"/>
              </g>
              <g id="g3392">
                <path id="path3394" d="M30.28,18.79h-13.12" fill="none" stroke="#999" stroke-linecap="round" stroke-linejoin="round"/>
              </g>
              <g id="g3396">
                <path id="path3398" d="M19.17,25.98h9.1c.62,0,1.12-.5,1.12-1.12v-6.08h-11.33v6.08c0,.62.5,1.12,1.12,1.12Z" fill="none" stroke="#999" stroke-linecap="round" stroke-linejoin="round"/>
              </g>
              <g id="g3400">
                <path id="path3402" d="M25.21,21.18h-2.98" fill="none" stroke="#999" stroke-linecap="round" stroke-linejoin="round"/>
              </g>
              <g id="g3404">
                <path id="path3406" d="M25.21,23.56h-2.98" fill="none" stroke="#999" stroke-linecap="round" stroke-linejoin="round"/>
              </g>
              <g id="g3408">
                <path id="path3410" d="M18.95,15.21h-1.79" fill="none" stroke="#999" stroke-linecap="round" stroke-linejoin="round"/>
              </g>
              <g id="g3412">
                <path id="path3414" d="M20.29,8.02h6.86c1.24,0,2.24,1,2.24,2.24v2.57h-11.33v-2.57c0-1.24,1-2.24,2.24-2.24Z" fill="none" stroke="#999" stroke-linecap="round" stroke-linejoin="round"/>
              </g>
            </g>
          </g>
        </g>
      </g>
    </g>
  </g>
</svg>