<svg xmlns="http://www.w3.org/2000/svg" width="128" height="27.996" viewBox="0 0 128 27.996"><path d="M18.379,0A9.851,9.851,0,0,0,14.8.672,9.934,9.934,0,0,0,11.213,0C5.322,0,0,5.571,0,13.216a14.8,14.8,0,0,0,29.592,0C29.6,5.571,24.274,0,18.379,0ZM14.8,4.54a6.117,6.117,0,0,1,2.635,4.84,2.647,2.647,0,1,1-5.27,0A6.117,6.117,0,0,1,14.8,4.54h0Zm0,19.818A11.153,11.153,0,0,1,3.635,13.145c0-5.752,4.152-9.684,7.412-9.533A8.622,8.622,0,0,0,8.565,9.565a6.232,6.232,0,1,0,12.461,0,8.622,8.622,0,0,0-2.481-5.954c3.263-.146,7.412,3.785,7.412,9.533A11.153,11.153,0,0,1,14.8,24.357ZM108.767,6.7H99.483a1.7,1.7,0,0,0-1.7,1.7V19.308a1.7,1.7,0,0,0,1.7,1.7h9.285a1.7,1.7,0,0,0,1.7-1.7V8.4A1.7,1.7,0,0,0,108.767,6.7Zm-.442,12.311H99.894V14.721h8.431Zm0-6.234H99.894V8.68h8.431Zm19.667-2.58h-5.76a19.4,19.4,0,0,0,5.733,6.626v2.367c-1.723-1.225-5.006-3.939-6.582-7.143v4.441l3.121.047v1.817h-3.121v2.687h-1.964V18.352h-3.042V16.483h3.042V12.042c-1.576,3.2-4.864,5.918-6.582,7.143V16.819a19.488,19.488,0,0,0,5.733-6.626h-5.7V8.214h6.551v-2.4h2v2.4H128v1.979ZM93.58,16.55a1.211,1.211,0,0,0,1.213-1.213V10.849A1.211,1.211,0,0,0,93.58,9.636H88.934V8.751h6.452V7.06H88.934V5.855H86.97V7.06H80.487V8.751H86.97v.885h-4.6a1.211,1.211,0,0,0-1.213,1.213v4.488a1.211,1.211,0,0,0,1.213,1.213H85.4A12.705,12.705,0,0,1,80.3,19.2v2.027a19.543,19.543,0,0,0,6.669-3.773v3.591h1.964V17.451A19.543,19.543,0,0,0,95.6,21.224V19.2a12.705,12.705,0,0,1-5.1-2.647Zm-6.61-1.482H83.043V13.785H86.97Zm0-2.651H83.043V11.134H86.97Zm1.964-1.284h3.959v1.284H88.934Zm0,2.651h3.959v1.284H88.934ZM50.99,6.337H63.64V9.4h-4.67V20.9H55.664V9.4h-4.67V6.337ZM64.691,9.4h4.67V20.9h3.307V9.4h4.67V6.337H64.687V9.4ZM46.612,15.408c0,.652.04,1.616.047,1.813.008.158,0,.312-.079.36-.095.055-.186-.032-.253-.154S41.836,8.684,41.3,7.835a3.078,3.078,0,0,0-2.837-1.659c-1.351,0-2.947.6-2.947,3.84V20.9h3.259V11.821c0-.652-.04-1.616-.047-1.809-.008-.158,0-.312.079-.36.095-.055.19.032.253.154s4.16,8.226,5.029,9.593a3.078,3.078,0,0,0,2.837,1.659c1.347,0,2.947-.6,2.947-3.84V6.333H46.612v9.079Z" fill="#0072bc" fill-rule="evenodd"/></svg>