<svg xmlns="http://www.w3.org/2000/svg" width="95" height="28.875" viewBox="0 0 95 28.875"><g transform="translate(0 0)"><path d="M17.686.03V3.4H11.153V7.006H13.7v5.649l-2.5,16.108h3.652L17.1,14.485h6.675V28.764h3.64V10.91H17.337v-3.9H28.221V3.4H21.449V.03Z" transform="translate(0 0)" fill="#0072bc"/><path d="M3.392,4.256h3.35L5.036,12.379l1.89,4.093v6.306H3.392ZM0,.495V28.857H3.392v-2.38h6.864V15.811L8.494,12.056l1.762-8.147V.495Z" transform="translate(0 0)" fill="#0072bc"/><path d="M36.982,0,32.723,5.6,36.988,11H41.4l-4.37-5.47L41.393,0Z" transform="translate(-0.016)" fill="#0072bc"/><path d="M47.435,0,43.141,5.6l4.3,5.4h4.413l-4.369-5.47L51.844,0Z" transform="translate(-0.021)" fill="#0072bc"/><path d="M57.822,0,53.563,5.6,57.828,11h4.408L57.9,5.528,62.227,0Z" transform="translate(-0.026)" fill="#0072bc"/><path d="M85.271,4.163h3.783v7.858H85.271ZM79.759.5V4.163h1.9v7.859h-1.9v3.668h1.718L80.086,28.764h3.677l1.361-13.073h3.929V28.764h3.67V15.691h2.319V12.023H92.723V4.163h2.319V.5Z" transform="translate(-0.042)" fill="#0072bc"/><path d="M71.173,14.208h3.533V25.179H71.173ZM66.173.5V4.1h3.454L65.515,17.546h2.3V28.755H78V10.631H71.3L73.257,4.1h5.52V.5Z" transform="translate(-0.034)" fill="#0072bc"/><path d="M45.207,11.767v5.687L31.959,28.887H38.4l8.89-7.672,8.891,7.672h6.442L49.3,17.387v-5.62Z" transform="translate(-0.021 -0.013)" fill="#0072bc"/><rect width="4.057" height="7.424" transform="translate(34.861 13.142)" fill="#0072bc"/><rect width="4.057" height="7.424" transform="translate(56.367 13.142)" fill="#0072bc"/></g></svg>