<?xml version="1.0" encoding="UTF-8"?>
<svg id="_レイヤー_2" data-name="レイヤー_2" xmlns="http://www.w3.org/2000/svg" viewBox="0 0 53.27 48.52">
  <g id="_デザイン" data-name="デザイン">
    <g>
      <path d="M29.55,32.86c-1.64.96-3.53,1.47-5.46,1.47-2.5,0-4.91-.85-6.79-2.4-1.86-1.53-3.09-3.64-3.45-5.94-.06-.4-.46-.68-.89-.62s-.72.44-.66.84c.38,2.38,1.56,4.57,3.35,6.27l-2.65,2.51c-1.07-.52-2.26-.79-3.47-.79-4.17,0-7.57,3.21-7.57,7.16s3.4,7.16,7.57,7.16,7.57-3.21,7.57-7.16c0-1.14-.29-2.27-.84-3.28l3.3-3.12c1.43.55,2.97.85,4.54.85,2.23,0,4.4-.59,6.29-1.7.37-.22.48-.67.25-1.02-.23-.35-.71-.45-1.07-.24ZM15.54,41.36c0,3.13-2.7,5.68-6.01,5.68s-6.01-2.55-6.01-5.68,2.7-5.68,6.01-5.68c.79,0,1.57.15,2.29.43l-2.4,2.27c-.9.85-.9,2.23,0,3.08.44.41,1.01.64,1.63.64s1.19-.23,1.63-.64l2.4-2.27c.3.68.45,1.42.45,2.17ZM11.58,40.42c-.14.13-.33.21-.53.21s-.39-.07-.53-.21c-.14-.13-.22-.31-.22-.5s.08-.37.22-.5l6.29-5.95c.4.29.82.56,1.26.8l-6.5,6.15Z" fill="#2e3174"/>
      <path d="M47.66,17.62c-.42-.11-.84.13-.96.52-.11.39.14.8.55.9,2.62.66,4.45,2.92,4.45,5.49,0,3.13-2.7,5.68-6.01,5.68s-6.01-2.55-6.01-5.68c0-2.55,1.82-4.81,4.42-5.48.42-.11.66-.51.55-.91s-.54-.62-.96-.52c-2.58.67-4.55,2.57-5.27,4.91h-2.6c-1.01-5.32-5.96-9.28-11.74-9.28-1.92,0-3.79.44-5.47,1.26l-4.32-4.09c.54-.98.84-2.1.84-3.28,0-3.95-3.4-7.16-7.57-7.16S0,3.21,0,7.16s3.4,7.16,7.57,7.16c1.25,0,2.43-.29,3.47-.8l3.96,3.74c-1.37,1.53-2.29,3.38-2.65,5.36-.07.4.21.78.64.85s.83-.2.9-.6c.41-2.25,1.65-4.31,3.5-5.8,1.87-1.51,4.25-2.33,6.71-2.33,4.92,0,9.16,3.31,10.14,7.81h-6.76c-1.27,0-2.31.98-2.31,2.18s1.03,2.18,2.31,2.18h6.67c-.38,1.42-1.09,2.76-2.09,3.9-.28.31-.23.78.1,1.04.15.11.32.17.5.17.22,0,.45-.09.6-.27,1.23-1.4,2.09-3.07,2.49-4.84h2.81c1.04,2.79,3.85,4.79,7.14,4.79,4.17,0,7.57-3.21,7.57-7.16,0-3.23-2.31-6.08-5.61-6.91ZM1.56,7.16C1.56,4.02,4.26,1.48,7.57,1.48s6.01,2.55,6.01,5.68-2.7,5.68-6.01,5.68S1.56,10.29,1.56,7.16ZM13.42,11.69l3.82,3.62c-.3.2-.6.41-.88.64-.1.08-.19.16-.29.24l-3.71-3.51c.38-.3.74-.63,1.05-1ZM27.47,25.43c-.41,0-.74-.32-.74-.7s.33-.7.74-.7h10.68c-.01.17-.02.34-.02.52,0,.3.02.6.06.89h-10.72Z" fill="#2e3174"/>
      <path d="M19.29,21.06h.01c.43,0,.78-.33.78-.73,0-.41-.35-.74-.78-.74h-.02c-.43,0-.78.33-.78.73,0,.41.35.74.78.74Z" fill="#2e3174"/>
      <path d="M17.75,21.28h-.02c-.43,0-.78.33-.78.73,0,.41.35.74.78.74h.02c.43,0,.78-.33.78-.73,0-.41-.35-.74-.78-.74Z" fill="#2e3174"/>
      <path d="M21.65,22.75h0c.43,0,.78-.33.78-.73,0-.41-.34-.74-.77-.74h-.01s0,0,0,0c-.43,0-.78.33-.78.73,0,.41.34.74.77.74h.01Z" fill="#2e3174"/>
      <path d="M44.58,26.2h0c-.43,0-.78.33-.78.73,0,.41.34.74.77.74h.01s0,0,0,0c.43,0,.78-.33.78-.73,0-.41-.34-.74-.77-.74h-.01Z" fill="#2e3174"/>
      <path d="M7.58,41.41h-.01c-.43,0-.78.33-.78.73,0,.41.35.74.78.74h.02c.43,0,.78-.33.78-.73,0-.41-.35-.74-.78-.74Z" fill="#2e3174"/>
    </g>
  </g>
</svg>