<?xml version="1.0" encoding="UTF-8"?>
<svg id="_レイヤー_2" data-name="レイヤー_2" xmlns="http://www.w3.org/2000/svg" viewBox="0 0 42.73 42.73">
  <g id="_デザイン" data-name="デザイン">
    <g>
      <path d="M42.73,14.68c0-.35-.28-.63-.63-.63h-4.73v-2.09h4.73c.35,0,.63-.28.63-.63s-.28-.63-.63-.63h-4.73v-.16c0-.52-.2-1.02-.58-1.39l-3.23-3.23c-.37-.37-.86-.58-1.39-.58h-.16V.63c0-.35-.28-.63-.63-.63s-.63.28-.63.63v4.73h-2.09V.63c0-.35-.28-.63-.63-.63s-.63.28-.63.63v4.73h-2.09V.63c0-.35-.28-.63-.63-.63s-.63.28-.63.63v4.73h-2.09V.63c0-.35-.28-.63-.63-.63s-.63.28-.63.63v4.73h-2.09V.63c0-.35-.28-.63-.63-.63s-.63.28-.63.63v4.73h-2.09V.63c0-.35-.28-.63-.63-.63s-.63.28-.63.63v4.73h-2.09V.63c0-.35-.28-.63-.63-.63s-.63.28-.63.63v4.73h-.16c-.52,0-1.02.2-1.39.58l-3.23,3.23c-.37.37-.58.86-.58,1.39v.16H.63c-.35,0-.63.28-.63.63s.28.63.63.63h4.73v2.09H.63c-.35,0-.63.28-.63.63s.28.63.63.63h4.73v2.09H.63c-.35,0-.63.28-.63.63s.28.63.63.63h4.73v2.09H.63c-.35,0-.63.28-.63.63s.28.63.63.63h4.73v2.09H.63c-.35,0-.63.28-.63.63s.28.63.63.63h4.73v2.09H.63c-.35,0-.63.28-.63.63s.28.63.63.63h4.73v2.09H.63c-.35,0-.63.28-.63.63s.28.63.63.63h4.73v.16c0,.52.2,1.02.58,1.39l3.23,3.23c.37.37.86.58,1.39.58h.16v4.73c0,.35.28.63.63.63s.63-.28.63-.63v-4.73h2.09v4.73c0,.35.28.63.63.63s.63-.28.63-.63v-4.73h2.09v4.73c0,.35.28.63.63.63s.63-.28.63-.63v-4.73h2.09v4.73c0,.35.28.63.63.63s.63-.28.63-.63v-4.73h2.09v4.73c0,.35.28.63.63.63s.63-.28.63-.63v-4.73h2.09v4.73c0,.35.28.63.63.63s.63-.28.63-.63v-4.73h2.09v4.73c0,.35.28.63.63.63s.63-.28.63-.63v-4.73h.16c.52,0,1.02-.2,1.39-.58l3.23-3.23c.37-.37.58-.86.58-1.39v-.16h4.73c.35,0,.63-.28.63-.63s-.28-.63-.63-.63h-4.73v-2.09h4.73c.35,0,.63-.28.63-.63s-.28-.63-.63-.63h-4.73v-2.09h4.73c.35,0,.63-.28.63-.63s-.28-.63-.63-.63h-4.73v-2.09h4.73c.35,0,.63-.28.63-.63s-.28-.63-.63-.63h-4.73v-2.09h4.73c.35,0,.63-.28.63-.63s-.28-.63-.63-.63h-4.73v-2.09h4.73c.35,0,.63-.28.63-.63ZM36.13,32.19h0c0,.19-.07.37-.21.5l-3.23,3.23c-.13.13-.31.21-.5.21H10.55c-.19,0-.37-.07-.5-.21l-3.23-3.23c-.13-.13-.21-.31-.21-.5V10.55c0-.19.07-.37.21-.5l3.23-3.23c.13-.13.31-.21.5-.21h21.64c.19,0,.37.07.5.21l3.23,3.23c.13.13.21.31.21.5v21.64h0Z" fill="#2e3174"/>
      <path d="M30.73,10.04c-.35,0-.63.28-.63.63s.28.63.63.63c.39,0,.71.32.71.71v2.05h-4.73s-.04-.02-.04-.04v-2.72h1.38c.35,0,.63-.28.63-.63s-.28-.63-.63-.63H12c-1.08,0-1.96.88-1.96,1.96v18.73c0,1.08.88,1.96,1.96,1.96.35,0,.63-.28.63-.63s-.28-.63-.63-.63c-.39,0-.71-.32-.71-.71V12c0-.39.32-.71.71-.71h10.08v.83c0,.19-.07.37-.21.5l-1.89,1.89c-.13.13-.31.21-.5.21h-1.6c-.26-.78-1-1.34-1.86-1.34-1.08,0-1.96.88-1.96,1.96s.88,1.96,1.96,1.96c.86,0,1.6-.56,1.86-1.34h1.6c.52,0,1.02-.2,1.39-.58l1.89-1.89c.37-.37.58-.86.58-1.39v-.83h2.09v2.72c0,.71.58,1.29,1.29,1.29h4.73v2.09h-6.21c-.26-.78-1-1.34-1.86-1.34-1.08,0-1.96.88-1.96,1.96s.88,1.96,1.96,1.96c.86,0,1.6-.56,1.86-1.34h6.21v2.09h-4.17c-.52,0-1.02.2-1.39.58l-1.89,1.89c-.13.13-.31.21-.5.21h-2.27c-.26-.78-1-1.34-1.86-1.34-1.08,0-1.96.88-1.96,1.96s.88,1.96,1.96,1.96c.86,0,1.6-.56,1.86-1.34h2.27c.52,0,1.02-.2,1.39-.58l1.89-1.89c.13-.13.31-.21.5-.21h4.17v2.09h-2.83c-.52,0-1.02.2-1.39.58l-3.9,3.9c-.37.37-.58.86-.58,1.39v1.5h-3.43v-1.5c0-.52-.2-1.02-.58-1.39l-3.23-3.23c-.13-.13-.21-.31-.21-.5v-2.27c.78-.26,1.34-1,1.34-1.86,0-1.08-.88-1.96-1.96-1.96s-1.96.88-1.96,1.96c0,.86.56,1.6,1.34,1.86v2.27c0,.52.2,1.02.58,1.39l3.23,3.23c.13.13.21.31.21.5v1.5h-3.39c-.35,0-.63.28-.63.63s.28.63.63.63h16.06c1.08,0,1.96-.88,1.96-1.96V12c0-1.08-.88-1.96-1.96-1.96ZM16.01,16.06c-.39,0-.71-.32-.71-.71s.32-.71.71-.71.71.32.71.71-.32.71-.71.71ZM23.37,18.73c-.39,0-.71-.32-.71-.71s.32-.71.71-.71.71.32.71.71-.32.71-.71.71ZM19.36,24.75c-.39,0-.71-.32-.71-.71s.32-.71.71-.71.71.32.71.71-.32.71-.71.71ZM14.68,21.41c-.39,0-.71-.32-.71-.71s.32-.71.71-.71.71.32.71.71-.32.71-.71.71ZM31.45,30.73c0,.39-.32.71-.71.71h-6.73v-1.5c0-.19.07-.37.21-.5l3.9-3.9c.13-.13.31-.21.5-.21h2.83v5.4Z" fill="#2e3174"/>
    </g>
  </g>
</svg>