<?xml version="1.0" encoding="UTF-8"?>
<svg id="_レイヤー_2" data-name="レイヤー_2" xmlns="http://www.w3.org/2000/svg" viewBox="0 0 65.47 24.06">
  <g id="_デザイン" data-name="デザイン">
    <g id="g15">
      <g id="g17">
        <g id="g19">
          <g id="g25">
            <path d="M13.06,24.06c-3.21,0-5.81-2.61-5.81-5.81s2.61-5.82,5.81-5.82,5.82,2.61,5.82,5.82-2.61,5.81-5.82,5.81ZM13.06,13.7c-2.5,0-4.54,2.04-4.54,4.54s2.04,4.54,4.54,4.54,4.54-2.04,4.54-4.54-2.04-4.54-4.54-4.54Z" fill="#2e3174"/>
          </g>
          <g id="g29">
            <path d="M48.27,20.95h-30.03c-.35,0-.64-.29-.64-.64s.29-.64.64-.64h30.03c.35,0,.64.29.64.64s-.29.64-.64.64Z" fill="#2e3174"/>
          </g>
          <g id="g33">
            <path d="M12.33,19.61c-.16,0-.33-.06-.45-.19-.25-.25-.25-.65,0-.9l1.46-1.46c.25-.25.65-.25.9,0,.25.25.25.65,0,.9l-1.46,1.46c-.12.12-.29.19-.45.19Z" fill="#2e3174"/>
          </g>
          <g id="g37">
            <path d="M53.45,24.06c-3.21,0-5.82-2.61-5.82-5.81s2.61-5.82,5.82-5.82,5.81,2.61,5.81,5.82-2.61,5.81-5.81,5.81ZM53.45,13.7c-2.5,0-4.54,2.04-4.54,4.54s2.04,4.54,4.54,4.54,4.54-2.04,4.54-4.54-2.04-4.54-4.54-4.54Z" fill="#2e3174"/>
          </g>
          <g id="g41">
            <path d="M54.18,19.61c-.16,0-.33-.06-.45-.19l-1.46-1.46c-.25-.25-.25-.65,0-.9.25-.25.65-.25.9,0l1.46,1.46c.25.25.25.65,0,.9-.12.12-.29.19-.45.19Z" fill="#2e3174"/>
          </g>
          <g id="g45">
            <path d="M62.76,20.95c-.35,0-.64-.29-.64-.64s.29-.64.64-.64c.87,0,1.43-.74,1.43-1.89v-3.44c0-1.36-.78-2.6-1.99-3.17-5.66-2.63-14.88-2.66-14.97-2.66-.12,0-.24-.03-.34-.1l-8.08-5.14c-2.06-1.31-4.44-2-6.88-2h-9.23c-2.14,0-4.28.51-6.2,1.46l-4.91,2.46c-1.65.82-3.4,1.35-5.23,1.58l-3.83.48c-.71.09-1.25.7-1.25,1.42v6.18c0,1.1.74,2.07,1.79,2.37l5,1.43c.34.1.54.45.44.79-.1.34-.45.54-.79.44l-5-1.43c-1.6-.46-2.72-1.94-2.72-3.6v-6.18c0-1.36,1.02-2.52,2.37-2.69l3.83-.48c1.68-.21,3.3-.7,4.81-1.46l4.91-2.46c2.09-1.05,4.43-1.6,6.77-1.6h9.23c2.68,0,5.3.76,7.57,2.2l7.93,5.05c1.4.01,9.8.21,15.32,2.78,1.66.77,2.73,2.47,2.73,4.32v3.44c0,1.86-1.11,3.16-2.71,3.16Z" fill="#2e3174"/>
          </g>
          <g id="g49">
            <path d="M20.31,8.52h-2c-1.55,0-3.01-.6-4.11-1.7l-1.59-1.59c-.25-.25-.25-.65,0-.9.25-.25.65-.25.9,0l1.59,1.59c.86.86,2,1.33,3.21,1.33h2c.35,0,.64.29.64.64s-.29.64-.64.64Z" fill="#2e3174"/>
          </g>
          <g id="g53">
            <path d="M47.23,8.52h-22.78c-.35,0-.64-.29-.64-.64s.29-.64.64-.64h22.78c.35,0,.64.29.64.64s-.29.64-.64.64Z" fill="#2e3174"/>
          </g>
          <g id="g57">
            <path d="M44.13,16.81h-21.74c-.35,0-.64-.29-.64-.64s.29-.64.64-.64h21.74c.35,0,.64.29.64.64s-.29.64-.64.64Z" fill="#2e3174"/>
          </g>
          <g id="g61">
            <path d="M2.71,11.63H.64c-.35,0-.64-.29-.64-.64s.29-.64.64-.64h2.07c.35,0,.64.29.64.64s-.29.64-.64.64Z" fill="#2e3174"/>
          </g>
          <g id="g65">
            <path d="M64.23,13.7h-2.5c-.35,0-.64-.29-.64-.64s.29-.64.64-.64h2.5c.35,0,.64.29.64.64s-.29.64-.64.64Z" fill="#2e3174"/>
          </g>
          <g id="g69">
            <path d="M28.59,8.52c-.35,0-.64-.29-.64-.64V.64c0-.35.29-.64.64-.64s.64.29.64.64v7.25c0,.35-.29.64-.64.64Z" fill="#2e3174"/>
          </g>
          <g id="g73">
            <path d="M16.69,8.1s-.09,0-.14-.02c-.34-.08-.56-.42-.48-.76l1.35-5.95c.08-.34.42-.56.76-.48.34.08.56.42.48.76l-1.35,5.95c-.07.3-.33.5-.62.5Z" fill="#2e3174"/>
          </g>
        </g>
      </g>
    </g>
  </g>
</svg>