<?xml version="1.0" encoding="UTF-8"?>
<svg id="_レイヤー_2" data-name="レイヤー_2" xmlns="http://www.w3.org/2000/svg" viewBox="0 0 41.08 41.08">
  <g id="_デザイン" data-name="デザイン">
    <g>
      <path d="M39.64,26.79h-6.35c-.35,0-.64-.29-.64-.64s.29-.64.64-.64h6.35c.09,0,.16-.07.16-.16v-7.68c0-.35.29-.64.64-.64s.64.29.64.64v7.68c0,.79-.65,1.44-1.44,1.44Z" fill="#2e3174"/>
      <path d="M40.44,15.65c-.35,0-.64-.29-.64-.64V1.44c0-.09-.07-.16-.16-.16H15.73c-.09,0-.16.07-.16.16v6.35c0,.35-.29.64-.64.64s-.64-.29-.64-.64V1.44c0-.79.65-1.44,1.44-1.44h23.91c.79,0,1.44.65,1.44,1.44v13.58c0,.35-.29.64-.64.64Z" fill="#2e3174"/>
      <g>
        <path d="M32.49,33.94h-6.33c-.35,0-.64-.29-.64-.64s.29-.64.64-.64h6.33c.09,0,.16-.07.16-.16v-1.93c0-.35.29-.64.64-.64s.64.29.64.64v1.93c0,.79-.65,1.44-1.44,1.44Z" fill="#2e3174"/>
        <path d="M7.77,15.56c-.35,0-.64-.29-.64-.64v-6.33c0-.79.65-1.44,1.44-1.44h13.81c.35,0,.64.29.64.64s-.29.64-.64.64h-13.81c-.09,0-.16.07-.16.16v6.33c0,.35-.29.64-.64.64Z" fill="#2e3174"/>
        <path d="M33.29,28.55c-.35,0-.64-.29-.64-.64V8.59c0-.09-.07-.16-.16-.16h-7.45c-.35,0-.64-.29-.64-.64s.29-.64.64-.64h7.45c.79,0,1.44.65,1.44,1.44v19.32c0,.35-.29.64-.64.64Z" fill="#2e3174"/>
      </g>
      <g>
        <path d="M25.35,41.08H1.44c-.79,0-1.44-.65-1.44-1.44V15.73c0-.79.65-1.44,1.44-1.44h23.91c.79,0,1.44.65,1.44,1.44v23.91c0,.79-.65,1.44-1.44,1.44ZM1.44,15.56c-.09,0-.16.07-.16.16v23.91c0,.09.07.16.16.16h23.91c.09,0,.16-.07.16-.16V15.73c0-.09-.07-.16-.16-.16H1.44Z" fill="#2e3174"/>
        <g>
          <g>
            <path d="M3.1,38.62c-.16,0-.33-.06-.45-.19-.25-.25-.25-.65,0-.9l1.22-1.22c.25-.25.65-.25.9,0,.25.25.25.65,0,.9l-1.22,1.22c-.12.12-.29.19-.45.19Z" fill="#2e3174"/>
            <path d="M1.9,36.2c-.16,0-.33-.06-.45-.19l-1.22-1.22c-.25-.25-.25-.65,0-.9.25-.25.65-.25.9,0l1.22,1.22c.25.25.25.65,0,.9-.12.12-.29.19-.45.19Z" fill="#2e3174"/>
          </g>
          <g>
            <path d="M1.9,31.35c-.16,0-.33-.06-.45-.19l-1.22-1.22c-.25-.25-.25-.65,0-.9.25-.25.65-.25.9,0l1.22,1.22c.25.25.25.65,0,.9-.12.12-.29.19-.45.19Z" fill="#2e3174"/>
            <g>
              <path d="M3.1,33.78c-.16,0-.33-.06-.45-.19-.25-.25-.25-.65,0-.9l1.22-1.22c.25-.25.65-.25.9,0,.25.25.25.65,0,.9l-1.22,1.22c-.12.12-.29.19-.45.19Z" fill="#2e3174"/>
              <path d="M7.94,38.62c-.16,0-.33-.06-.45-.19-.25-.25-.25-.65,0-.9l1.22-1.22c.25-.25.65-.25.9,0,.25.25.25.65,0,.9l-1.22,1.22c-.12.12-.29.19-.45.19Z" fill="#2e3174"/>
              <path d="M6.74,36.2c-.16,0-.33-.06-.45-.19l-1.22-1.22c-.25-.25-.25-.65,0-.9.25-.25.65-.25.9,0l1.22,1.22c.25.25.25.65,0,.9-.12.12-.29.19-.45.19Z" fill="#2e3174"/>
            </g>
          </g>
          <g>
            <g>
              <path d="M3.1,28.93c-.16,0-.33-.06-.45-.19-.25-.25-.25-.65,0-.9l1.22-1.22c.25-.25.65-.25.9,0,.25.25.25.65,0,.9l-1.22,1.22c-.12.12-.29.19-.45.19Z" fill="#2e3174"/>
              <path d="M1.9,26.51c-.16,0-.33-.06-.45-.19l-1.22-1.22c-.25-.25-.25-.65,0-.9.25-.25.65-.25.9,0l1.22,1.22c.25.25.25.65,0,.9-.12.12-.29.19-.45.19Z" fill="#2e3174"/>
            </g>
            <path d="M6.74,31.35c-.16,0-.33-.06-.45-.19l-1.22-1.22c-.25-.25-.25-.65,0-.9.25-.25.65-.25.9,0l1.22,1.22c.25.25.25.65,0,.9-.12.12-.29.19-.45.19Z" fill="#2e3174"/>
            <g>
              <path d="M7.94,33.78c-.16,0-.33-.06-.45-.19-.25-.25-.25-.65,0-.9l1.22-1.22c.25-.25.65-.25.9,0,.25.25.25.65,0,.9l-1.22,1.22c-.12.12-.29.19-.45.19Z" fill="#2e3174"/>
              <path d="M12.78,38.62c-.16,0-.33-.06-.45-.19-.25-.25-.25-.65,0-.9l1.22-1.22c.25-.25.65-.25.9,0s.25.65,0,.9l-1.22,1.22c-.12.12-.29.19-.45.19Z" fill="#2e3174"/>
              <path d="M11.58,36.2c-.16,0-.33-.06-.45-.19l-1.22-1.22c-.25-.25-.25-.65,0-.9.25-.25.65-.25.9,0l1.22,1.22c.25.25.25.65,0,.9-.12.12-.29.19-.45.19Z" fill="#2e3174"/>
            </g>
          </g>
          <g>
            <g>
              <path d="M3.1,24.09c-.16,0-.33-.06-.45-.19-.25-.25-.25-.65,0-.9l1.22-1.22c.25-.25.65-.25.9,0,.25.25.25.65,0,.9l-1.22,1.22c-.12.12-.29.19-.45.19Z" fill="#2e3174"/>
              <path d="M1.9,21.67c-.16,0-.33-.06-.45-.19l-1.22-1.22c-.25-.25-.25-.65,0-.9.25-.25.65-.25.9,0l1.22,1.22c.25.25.25.65,0,.9-.12.12-.29.19-.45.19Z" fill="#2e3174"/>
            </g>
            <g>
              <path d="M7.94,28.93c-.16,0-.33-.06-.45-.19-.25-.25-.25-.65,0-.9l1.22-1.22c.25-.25.65-.25.9,0,.25.25.25.65,0,.9l-1.22,1.22c-.12.12-.29.19-.45.19Z" fill="#2e3174"/>
              <path d="M6.74,26.51c-.16,0-.33-.06-.45-.19l-1.22-1.22c-.25-.25-.25-.65,0-.9.25-.25.65-.25.9,0l1.22,1.22c.25.25.25.65,0,.9-.12.12-.29.19-.45.19Z" fill="#2e3174"/>
            </g>
            <path d="M11.58,31.35c-.16,0-.33-.06-.45-.19l-1.22-1.22c-.25-.25-.25-.65,0-.9.25-.25.65-.25.9,0l1.22,1.22c.25.25.25.65,0,.9-.12.12-.29.19-.45.19Z" fill="#2e3174"/>
            <g>
              <path d="M12.78,33.78c-.16,0-.33-.06-.45-.19-.25-.25-.25-.65,0-.9l1.22-1.22c.25-.25.65-.25.9,0s.25.65,0,.9l-1.22,1.22c-.12.12-.29.19-.45.19Z" fill="#2e3174"/>
              <path d="M17.63,38.62c-.16,0-.33-.06-.45-.19-.25-.25-.25-.65,0-.9l1.22-1.22c.25-.25.65-.25.9,0s.25.65,0,.9l-1.22,1.22c-.12.12-.29.19-.45.19Z" fill="#2e3174"/>
              <path d="M16.43,36.2c-.16,0-.33-.06-.45-.19l-1.22-1.22c-.25-.25-.25-.65,0-.9s.65-.25.9,0l1.22,1.22c.25.25.25.65,0,.9-.12.12-.29.19-.45.19Z" fill="#2e3174"/>
            </g>
          </g>
          <g>
            <g>
              <path d="M3.1,19.24c-.16,0-.33-.06-.45-.19-.25-.25-.25-.65,0-.9l1.22-1.22c.25-.25.65-.25.9,0,.25.25.25.65,0,.9l-1.22,1.22c-.12.12-.29.19-.45.19Z" fill="#2e3174"/>
              <path d="M7.94,24.09c-.16,0-.33-.06-.45-.19-.25-.25-.25-.65,0-.9l1.22-1.22c.25-.25.65-.25.9,0,.25.25.25.65,0,.9l-1.22,1.22c-.12.12-.29.19-.45.19Z" fill="#2e3174"/>
              <path d="M6.74,21.67c-.16,0-.33-.06-.45-.19l-1.22-1.22c-.25-.25-.25-.65,0-.9.25-.25.65-.25.9,0l1.22,1.22c.25.25.25.65,0,.9-.12.12-.29.19-.45.19Z" fill="#2e3174"/>
            </g>
            <g>
              <path d="M12.78,28.93c-.16,0-.33-.06-.45-.19-.25-.25-.25-.65,0-.9l1.22-1.22c.25-.25.65-.25.9,0s.25.65,0,.9l-1.22,1.22c-.12.12-.29.19-.45.19Z" fill="#2e3174"/>
              <path d="M11.58,26.51c-.16,0-.33-.06-.45-.19l-1.22-1.22c-.25-.25-.25-.65,0-.9.25-.25.65-.25.9,0l1.22,1.22c.25.25.25.65,0,.9-.12.12-.29.19-.45.19Z" fill="#2e3174"/>
            </g>
            <path d="M16.43,31.35c-.16,0-.33-.06-.45-.19l-1.22-1.22c-.25-.25-.25-.65,0-.9s.65-.25.9,0l1.22,1.22c.25.25.25.65,0,.9-.12.12-.29.19-.45.19Z" fill="#2e3174"/>
            <g>
              <path d="M17.63,33.78c-.16,0-.33-.06-.45-.19-.25-.25-.25-.65,0-.9l1.22-1.22c.25-.25.65-.25.9,0s.25.65,0,.9l-1.22,1.22c-.12.12-.29.19-.45.19Z" fill="#2e3174"/>
              <path d="M22.47,38.62c-.16,0-.33-.06-.45-.19-.25-.25-.25-.65,0-.9l1.22-1.22c.25-.25.65-.25.9,0s.25.65,0,.9l-1.22,1.22c-.12.12-.29.19-.45.19Z" fill="#2e3174"/>
              <path d="M21.27,36.2c-.16,0-.33-.06-.45-.19l-1.22-1.22c-.25-.25-.25-.65,0-.9s.65-.25.9,0l1.22,1.22c.25.25.25.65,0,.9-.12.12-.29.19-.45.19Z" fill="#2e3174"/>
            </g>
          </g>
          <g>
            <g>
              <path d="M7.94,19.24c-.16,0-.33-.06-.45-.19-.25-.25-.25-.65,0-.9l1.22-1.22c.25-.25.65-.25.9,0,.25.25.25.65,0,.9l-1.22,1.22c-.12.12-.29.19-.45.19Z" fill="#2e3174"/>
              <path d="M12.78,24.09c-.16,0-.33-.06-.45-.19-.25-.25-.25-.65,0-.9l1.22-1.22c.25-.25.65-.25.9,0s.25.65,0,.9l-1.22,1.22c-.12.12-.29.19-.45.19Z" fill="#2e3174"/>
              <path d="M11.58,21.67c-.16,0-.33-.06-.45-.19l-1.22-1.22c-.25-.25-.25-.65,0-.9.25-.25.65-.25.9,0l1.22,1.22c.25.25.25.65,0,.9-.12.12-.29.19-.45.19Z" fill="#2e3174"/>
            </g>
            <g>
              <path d="M17.63,28.93c-.16,0-.33-.06-.45-.19-.25-.25-.25-.65,0-.9l1.22-1.22c.25-.25.65-.25.9,0s.25.65,0,.9l-1.22,1.22c-.12.12-.29.19-.45.19Z" fill="#2e3174"/>
              <path d="M16.43,26.51c-.16,0-.33-.06-.45-.19l-1.22-1.22c-.25-.25-.25-.65,0-.9s.65-.25.9,0l1.22,1.22c.25.25.25.65,0,.9-.12.12-.29.19-.45.19Z" fill="#2e3174"/>
            </g>
            <path d="M21.27,31.35c-.16,0-.33-.06-.45-.19l-1.22-1.22c-.25-.25-.25-.65,0-.9s.65-.25.9,0l1.22,1.22c.25.25.25.65,0,.9-.12.12-.29.19-.45.19Z" fill="#2e3174"/>
            <g>
              <path d="M22.47,33.78c-.16,0-.33-.06-.45-.19-.25-.25-.25-.65,0-.9l1.22-1.22c.25-.25.65-.25.9,0s.25.65,0,.9l-1.22,1.22c-.12.12-.29.19-.45.19Z" fill="#2e3174"/>
              <path d="M26.12,36.2c-.16,0-.33-.06-.45-.19l-1.22-1.22c-.25-.25-.25-.65,0-.9s.65-.25.9,0l1.22,1.22c.25.25.25.65,0,.9-.12.12-.29.19-.45.19Z" fill="#2e3174"/>
            </g>
            <g>
              <path d="M6.74,41.04c-.16,0-.33-.06-.45-.19l-1.22-1.22c-.25-.25-.25-.65,0-.9.25-.25.65-.25.9,0l1.22,1.22c.25.25.25.65,0,.9-.12.12-.29.19-.45.19Z" fill="#2e3174"/>
              <path d="M11.58,41.04c-.16,0-.33-.06-.45-.19l-1.22-1.22c-.25-.25-.25-.65,0-.9.25-.25.65-.25.9,0l1.22,1.22c.25.25.25.65,0,.9-.12.12-.29.19-.45.19Z" fill="#2e3174"/>
              <path d="M16.43,41.04c-.16,0-.33-.06-.45-.19l-1.22-1.22c-.25-.25-.25-.65,0-.9s.65-.25.9,0l1.22,1.22c.25.25.25.65,0,.9-.12.12-.29.19-.45.19Z" fill="#2e3174"/>
              <path d="M21.27,41.04c-.16,0-.33-.06-.45-.19l-1.22-1.22c-.25-.25-.25-.65,0-.9s.65-.25.9,0l1.22,1.22c.25.25.25.65,0,.9-.12.12-.29.19-.45.19Z" fill="#2e3174"/>
              <path d="M25.82,40.74c-.16,0-.33-.06-.45-.19l-.92-.92c-.25-.25-.25-.65,0-.9.25-.25.65-.25.9,0l.92.92c.25.25.25.65,0,.9-.12.12-.29.19-.45.19Z" fill="#2e3174"/>
            </g>
          </g>
          <g>
            <g>
              <path d="M12.78,19.24c-.16,0-.33-.06-.45-.19-.25-.25-.25-.65,0-.9l1.22-1.22c.25-.25.65-.25.9,0s.25.65,0,.9l-1.22,1.22c-.12.12-.29.19-.45.19Z" fill="#2e3174"/>
              <path d="M17.63,24.09c-.16,0-.33-.06-.45-.19-.25-.25-.25-.65,0-.9l1.22-1.22c.25-.25.65-.25.9,0s.25.65,0,.9l-1.22,1.22c-.12.12-.29.19-.45.19Z" fill="#2e3174"/>
              <path d="M16.43,21.67c-.16,0-.33-.06-.45-.19l-1.22-1.22c-.25-.25-.25-.65,0-.9s.65-.25.9,0l1.22,1.22c.25.25.25.65,0,.9-.12.12-.29.19-.45.19Z" fill="#2e3174"/>
            </g>
            <g>
              <path d="M22.47,28.93c-.16,0-.33-.06-.45-.19-.25-.25-.25-.65,0-.9l1.22-1.22c.25-.25.65-.25.9,0s.25.65,0,.9l-1.22,1.22c-.12.12-.29.19-.45.19Z" fill="#2e3174"/>
              <path d="M21.27,26.51c-.16,0-.33-.06-.45-.19l-1.22-1.22c-.25-.25-.25-.65,0-.9s.65-.25.9,0l1.22,1.22c.25.25.25.65,0,.9-.12.12-.29.19-.45.19Z" fill="#2e3174"/>
            </g>
            <path d="M26.12,31.35c-.16,0-.33-.06-.45-.19l-1.22-1.22c-.25-.25-.25-.65,0-.9s.65-.25.9,0l1.22,1.22c.25.25.25.65,0,.9-.12.12-.29.19-.45.19Z" fill="#2e3174"/>
          </g>
          <g>
            <g>
              <path d="M17.63,19.24c-.16,0-.33-.06-.45-.19-.25-.25-.25-.65,0-.9l1.22-1.22c.25-.25.65-.25.9,0s.25.65,0,.9l-1.22,1.22c-.12.12-.29.19-.45.19Z" fill="#2e3174"/>
              <path d="M22.47,24.09c-.16,0-.33-.06-.45-.19-.25-.25-.25-.65,0-.9l1.22-1.22c.25-.25.65-.25.9,0s.25.65,0,.9l-1.22,1.22c-.12.12-.29.19-.45.19Z" fill="#2e3174"/>
              <path d="M21.27,21.67c-.16,0-.33-.06-.45-.19l-1.22-1.22c-.25-.25-.25-.65,0-.9s.65-.25.9,0l1.22,1.22c.25.25.25.65,0,.9-.12.12-.29.19-.45.19Z" fill="#2e3174"/>
            </g>
            <path d="M26.12,26.51c-.16,0-.33-.06-.45-.19l-1.22-1.22c-.25-.25-.25-.65,0-.9s.65-.25.9,0l1.22,1.22c.25.25.25.65,0,.9-.12.12-.29.19-.45.19Z" fill="#2e3174"/>
          </g>
          <g>
            <path d="M22.47,19.24c-.16,0-.33-.06-.45-.19-.25-.25-.25-.65,0-.9l1.22-1.22c.25-.25.65-.25.9,0s.25.65,0,.9l-1.22,1.22c-.12.12-.29.19-.45.19Z" fill="#2e3174"/>
            <path d="M26.12,21.67c-.16,0-.33-.06-.45-.19l-1.22-1.22c-.25-.25-.25-.65,0-.9s.65-.25.9,0l1.22,1.22c.25.25.25.65,0,.9-.12.12-.29.19-.45.19Z" fill="#2e3174"/>
          </g>
        </g>
        <g>
          <path d="M1.9,16.79c-.16,0-.33-.06-.45-.19l-.95-.95c-.25-.25-.25-.65,0-.9.25-.25.65-.25.9,0l.95.95c.25.25.25.65,0,.9-.12.12-.29.19-.45.19Z" fill="#2e3174"/>
          <path d="M6.74,16.79c-.16,0-.33-.06-.45-.19l-1.22-1.22c-.25-.25-.25-.65,0-.9.25-.25.65-.25.9,0l1.22,1.22c.25.25.25.65,0,.9-.12.12-.29.19-.45.19Z" fill="#2e3174"/>
          <path d="M11.58,16.79c-.16,0-.33-.06-.45-.19l-1.22-1.22c-.25-.25-.25-.65,0-.9.25-.25.65-.25.9,0l1.22,1.22c.25.25.25.65,0,.9-.12.12-.29.19-.45.19Z" fill="#2e3174"/>
          <path d="M16.43,16.79c-.16,0-.33-.06-.45-.19l-1.22-1.22c-.25-.25-.25-.65,0-.9s.65-.25.9,0l1.22,1.22c.25.25.25.65,0,.9-.12.12-.29.19-.45.19Z" fill="#2e3174"/>
          <path d="M21.27,16.79c-.16,0-.33-.06-.45-.19l-1.22-1.22c-.25-.25-.25-.65,0-.9s.65-.25.9,0l1.22,1.22c.25.25.25.65,0,.9-.12.12-.29.19-.45.19Z" fill="#2e3174"/>
        </g>
      </g>
    </g>
  </g>
</svg>