<?xml version="1.0" encoding="UTF-8"?>
<svg id="_レイヤー_2" data-name="レイヤー 2" xmlns="http://www.w3.org/2000/svg" viewBox="0 0 28.52 20.05">
  <defs>
    <style>
      .cls-1 {
        fill: #fff;
      }
    </style>
  </defs>
  <g id="_レイヤー_1-2" data-name="レイヤー 1">
    <g>
      <path class="cls-1" d="M18.48,11.21l-2.39,2.4c-.97.97-2.67.99-3.66,0l-2.39-2.4L1.46,19.82c.32.15.67.24,1.05.24h23.51c.37,0,.73-.09,1.05-.24l-8.58-8.61Z"/>
      <path class="cls-1" d="M26.02,0H2.51c-.37,0-.73.09-1.05.24l9.17,9.2s0,0,0,0,0,0,0,0l2.98,2.99c.32.32.98.32,1.3,0l2.98-2.99s0,0,0,0c0,0,0,0,0,0L27.06.24c-.32-.15-.67-.24-1.05-.24Z"/>
      <path class="cls-1" d="M.27,1.4c-.17.33-.27.71-.27,1.1v15.04c0,.4.1.77.27,1.1l8.59-8.62L.27,1.4Z"/>
      <path class="cls-1" d="M28.26,1.4l-8.59,8.62,8.59,8.62c.17-.33.27-.71.27-1.1V2.51c0-.4-.1-.77-.27-1.1Z"/>
    </g>
  </g>
</svg>