<?xml version="1.0" encoding="UTF-8"?>
<svg id="_レイヤー_2" data-name="レイヤー 2" xmlns="http://www.w3.org/2000/svg" viewBox="0 0 16.08 20">
  <defs>
    <style>
      .cls-1 {
        fill: #fff;
      }

      .cls-2 {
        fill: #ed676a;
      }

      .cls-3 {
        fill: #e5252a;
      }
    </style>
  </defs>
  <g id="_レイヤー_1-2" data-name="レイヤー 1">
    <g>
      <path class="cls-3" d="M16.08,6.35v11.68c0,1.09-.88,1.97-1.97,1.97H1.97C.88,20,0,19.12,0,18.03V1.97C0,.88.88,0,1.97,0h8.13l5.98,6.35Z"/>
      <path class="cls-2" d="M16.08,6.35h-4.67c-.72,0-1.31-.59-1.31-1.31V0l5.98,6.35Z"/>
      <g>
        <path class="cls-1" d="M4.2,14.05v1.33h-.94v-3.92h1.56c.3,0,.57.06.8.17s.41.27.54.47c.13.2.19.43.19.69,0,.38-.14.69-.41.92-.27.23-.65.34-1.13.34h-.6ZM4.2,13.32h.62c.18,0,.32-.04.42-.14.1-.09.14-.22.14-.39,0-.18-.05-.33-.15-.44-.1-.11-.23-.16-.4-.17h-.63v1.13Z"/>
        <path class="cls-1" d="M6.84,15.38v-3.92h1.26c.35,0,.66.08.93.24.28.16.49.38.65.67.16.29.23.61.23.96v.18c0,.36-.08.68-.23.97-.15.28-.37.51-.64.67-.28.16-.58.24-.92.24h-1.29,0ZM7.78,12.19v2.46h.33c.27,0,.48-.1.62-.29.15-.19.22-.48.22-.86v-.17c0-.38-.07-.66-.22-.86-.14-.19-.36-.29-.63-.29h-.32Z"/>
        <path class="cls-1" d="M12.87,13.81h-1.52v1.56h-.94v-3.92h2.62v.73h-1.68v.9h1.52v.73Z"/>
      </g>
    </g>
  </g>
</svg>