<?xml version="1.0" encoding="UTF-8"?>
<svg id="_レイヤー_2" data-name="レイヤー 2" xmlns="http://www.w3.org/2000/svg" viewBox="0 0 21.09 22.63">
  <defs>
    <style>
      .cls-1 {
        fill: #fff;
      }
    </style>
  </defs>
  <g id="_レイヤー_1-2" data-name="レイヤー 1">
    <path class="cls-1" d="M18.73,15.75c-1.37-1.17-2.75-1.88-4.1-.71l-.81.71c-.59.51-1.69,2.91-5.93-1.97-4.24-4.87-1.72-5.63-1.13-6.14l.81-.71c1.34-1.17.84-2.64-.13-4.16l-.58-.92C5.88.34,4.82-.66,3.48.51l-.73.64C2.16,1.58.49,2.99.09,5.67c-.49,3.21,1.05,6.89,4.56,10.93,3.51,4.04,6.94,6.07,10.19,6.03,2.7-.03,4.33-1.48,4.84-2.01l.73-.64c1.34-1.17.51-2.36-.86-3.53l-.82-.71Z"/>
  </g>
</svg>