<?xml version="1.0" encoding="UTF-8"?>
<svg id="_レイヤー_2" data-name="レイヤー 2" xmlns="http://www.w3.org/2000/svg" viewBox="0 0 14.96 20">
  <defs>
    <style>
      .cls-1, .cls-2 {
        fill: #fff;
      }

      .cls-3 {
        fill: #0263d1;
      }

      .cls-2 {
        fill-rule: evenodd;
        isolation: isolate;
        opacity: .3;
      }
    </style>
  </defs>
  <g id="_レイヤー_1-2" data-name="レイヤー 1">
    <g id="Vrstva_1">
      <path class="cls-3" d="M2.6,0h6.69l5.66,5.91v11.49c0,1.44-1.16,2.6-2.6,2.6H2.6c-1.44,0-2.6-1.16-2.6-2.6V2.6C0,1.16,1.16,0,2.6,0Z"/>
      <g>
        <path class="cls-2" d="M9.29,0v5.86h5.67L9.29,0Z"/>
        <path class="cls-1" d="M2.42,14.27v-3.31h1.17c.23,0,.45.04.66.1.2.07.39.16.55.29.16.13.29.3.39.52s.14.46.14.74-.05.53-.14.74-.22.39-.39.52-.35.23-.55.29c-.2.06-.42.1-.66.1h-1.17ZM3.24,13.55h.25c.13,0,.26-.02.37-.05.11-.03.22-.08.31-.15s.17-.16.23-.29c.06-.12.08-.28.08-.45s-.03-.32-.08-.45c-.05-.12-.13-.22-.23-.29-.1-.07-.2-.12-.31-.15-.11-.03-.23-.05-.37-.05h-.25v1.87ZM7.33,14.31c-.5,0-.91-.16-1.24-.48-.33-.32-.49-.73-.49-1.21s.16-.89.49-1.21c.33-.32.74-.48,1.24-.48s.9.16,1.22.48c.32.32.49.73.49,1.21s-.16.89-.49,1.21c-.33.32-.73.48-1.22.48ZM6.7,13.31c.16.18.37.28.63.28s.46-.09.63-.28c.16-.19.25-.42.25-.7s-.08-.51-.25-.7c-.16-.18-.37-.28-.63-.28s-.47.09-.63.28c-.16.19-.25.42-.25.7s.08.51.25.7ZM11.01,14.31c-.48,0-.88-.15-1.2-.45-.32-.3-.48-.71-.48-1.25s.16-.94.49-1.24c.33-.3.72-.45,1.2-.45.43,0,.78.11,1.06.32.28.21.43.49.47.84l-.84.17c-.04-.18-.12-.33-.25-.44s-.28-.17-.45-.17c-.24,0-.43.08-.59.25-.16.17-.24.41-.24.72s.08.55.24.72c.16.17.36.26.6.26.17,0,.32-.05.44-.15s.2-.23.23-.39l.85.19c-.08.33-.25.59-.52.78-.27.19-.6.28-1,.28h0Z"/>
      </g>
    </g>
  </g>
</svg>